<?xml version="1.0" encoding="utf-8"?>
<!-- Generator: Adobe Illustrator 17.1.0, SVG Export Plug-In . SVG Version: 6.00 Build 0)  -->
<!DOCTYPE svg PUBLIC "-//W3C//DTD SVG 1.1//EN" "http://www.w3.org/Graphics/SVG/1.1/DTD/svg11.dtd">
<svg version="1.1" id="Layer_1" xmlns="http://www.w3.org/2000/svg" xmlns:xlink="http://www.w3.org/1999/xlink" x="0px" y="0px"
	 viewBox="0 0 54.5 39.2" enable-background="new 0 0 54.5 39.2" xml:space="preserve">
<g id="кавычки">
	<path fill="#FFFFFF" d="M54.5,20.1c0-0.8-0.3-1.3-1-1.7c-3.4-1.9-6.9-3.8-10.2-5.8c-0.5-0.3-1.1-0.3-1.7,0c-2.1,1.2-4,2.3-6.1,3.4
		c0-0.9,0-1.7,0-2.6c0-1.1,0-2.2,0-3.3c0-0.3,0.1-0.5,0.2-0.8l6.1-3.5c0,0,0.1,0,0.1-0.1l0,0l2.1-1.2c0.5-0.3,0.8-1.1,0.4-1.7
		l-1.2-2.2c-0.3-0.5-1.1-0.8-1.7-0.4l-2.7,1.5c-2.5,1.4-5.1,2.8-7.6,4.2c-0.7,0.3-1,0.9-1,1.6c0,2,0,3.8,0,5.8s0,3.9,0,5.9
		c0,0.1,0,0.2,0,0.3c0,0.1,0,0.2,0,0.3c0,2,0,3.8,0,5.8s0,3.9,0,5.9c0,0.8,0.3,1.2,0.9,1.5c3.5,2,7,3.9,10.4,5.8
		c0.5,0.3,1.1,0.3,1.6,0c3.5-2,6.9-3.9,10.4-5.9c0.7-0.3,0.9-0.9,0.9-1.5C54.5,27.8,54.5,23.9,54.5,20.1z"/>
	<path fill="#FFFFFF" d="M23.3,18.3c-3.4-1.9-6.9-3.8-10.2-5.8c-0.5-0.3-1.1-0.3-1.7,0c-2.1,1.2-4,2.3-6.1,3.4c0-0.9,0-1.7,0-2.6
		c0-1.1,0-2.2,0-3.3c0-0.3,0.1-0.5,0.2-0.8l6.1-3.5c0,0,0.1,0,0.1-0.1l0,0l2.2-1.1c0.5-0.3,0.8-1.1,0.4-1.7l-1.2-2.2
		c-0.3-0.5-1.1-0.8-1.7-0.4L8.6,1.8C6.1,3.2,3.5,4.6,1,6C0.3,6.4,0,6.9,0,7.7c0,2,0,3.8,0,5.8s0,3.9,0,5.9c0,0.1,0,0.2,0,0.3
		c0,0.1,0,0.2,0,0.3c0,2,0,3.8,0,5.8s0,3.9,0,5.9c0,0.8,0.3,1.2,0.9,1.5c3.5,2,7,3.9,10.4,5.8c0.5,0.3,1.1,0.3,1.6,0
		c3.5-2,6.9-3.9,10.4-5.9c0.7-0.3,0.9-0.9,0.9-1.5c0-3.8,0-7.7,0-11.5C24.4,19.3,24.1,18.8,23.3,18.3z"/>
</g>
</svg>
